<?xml version="1.0" encoding="UTF-8"?>
<!DOCTYPE svg PUBLIC "-//W3C//DTD SVG 1.1//EN" "http://www.w3.org/Graphics/SVG/1.1/DTD/svg11.dtd">
<svg xmlns="http://www.w3.org/2000/svg" version="1.1" width="100px" height="100px" style="shape-rendering:geometricPrecision; text-rendering:geometricPrecision; image-rendering:optimizeQuality; fill-rule:evenodd; clip-rule:evenodd" xmlns:xlink="http://www.w3.org/1999/xlink">
<g><path style="opacity:1" fill="#fefffe" d="M 27.5,15.5 C 28.552,15.3505 29.552,15.5172 30.5,16C 37.6222,22.4471 43.9556,29.4471 49.5,37C 48.8413,41.0823 46.508,42.4156 42.5,41C 39.6667,38.1667 36.8333,35.3333 34,32.5C 33.6667,48.5 33.3333,64.5 33,80.5C 30.7175,84.0406 28.0509,84.3739 25,81.5C 24.6667,64.8333 24.3333,48.1667 24,31.5C 20.8333,34.6667 17.6667,37.8333 14.5,41C 9,42.1667 6.83333,40 8,34.5C 14.3952,27.9365 20.8952,21.6032 27.5,15.5 Z"/></g>
<g><path style="opacity:1" fill="#fefffe" d="M 68.5,15.5 C 70.5824,15.472 72.4157,16.1387 74,17.5C 74.3333,34.1667 74.6667,50.8333 75,67.5C 78.1667,64.3333 81.3333,61.1667 84.5,58C 90,56.8333 92.1667,59 91,64.5C 84.5858,71.5858 77.5858,77.9191 70,83.5C 62.0917,77.2608 55.2584,70.0941 49.5,62C 50.1587,57.9177 52.492,56.5844 56.5,58C 59.3333,60.8333 62.1667,63.6667 65,66.5C 65.3333,50.5 65.6667,34.5 66,18.5C 67.045,17.6266 67.8783,16.6266 68.5,15.5 Z"/></g>
</svg>
